<?xml version="1.0" encoding="UTF-8" standalone="no"?>
<!-- Created with Inkscape (http://www.inkscape.org/) -->

<svg
   xmlns:dc="http://purl.org/dc/elements/1.1/"
   xmlns:cc="http://creativecommons.org/ns#"
   xmlns:rdf="http://www.w3.org/1999/02/22-rdf-syntax-ns#"
   xmlns:svg="http://www.w3.org/2000/svg"
   xmlns="http://www.w3.org/2000/svg"
   xmlns:xlink="http://www.w3.org/1999/xlink"
   xmlns:sodipodi="http://sodipodi.sourceforge.net/DTD/sodipodi-0.dtd"
   xmlns:inkscape="http://www.inkscape.org/namespaces/inkscape"
   width="250"
   height="300"
   id="svg2"
   version="1.1"
   inkscape:version="0.48.4 r9939"
   sodipodi:docname="goal.svg">
  <defs
     id="defs4">
    <linearGradient
       id="linearGradient3785">
      <stop
         style="stop-color:#aa8800;stop-opacity:1;"
         offset="0"
         id="stop3787" />
      <stop
         id="stop3793"
         offset="0.5"
         style="stop-color:#d4ab07;stop-opacity:1;" />
      <stop
         style="stop-color:#ffcf0f;stop-opacity:1;"
         offset="1"
         id="stop3789" />
    </linearGradient>
    <linearGradient
       id="linearGradient3777">
      <stop
         style="stop-color:#807e00;stop-opacity:1;"
         offset="0"
         id="stop3779" />
      <stop
         style="stop-color:#959500;stop-opacity:1;"
         offset="1"
         id="stop3781" />
    </linearGradient>
    <inkscape:perspective
       sodipodi:type="inkscape:persp3d"
       inkscape:vp_x="0 : 150 : 1"
       inkscape:vp_y="0 : 1000 : 0"
       inkscape:vp_z="250 : 150 : 1"
       inkscape:persp3d-origin="125 : 100 : 1"
       id="perspective3016" />
    <linearGradient
       inkscape:collect="always"
       xlink:href="#linearGradient3777"
       id="linearGradient3783"
       x1="18.506228"
       y1="129.23192"
       x2="230.30257"
       y2="129.23192"
       gradientUnits="userSpaceOnUse" />
    <linearGradient
       inkscape:collect="always"
       xlink:href="#linearGradient3785"
       id="linearGradient3791"
       x1="65.733826"
       y1="180.49115"
       x2="204.96094"
       y2="180.49115"
       gradientUnits="userSpaceOnUse" />
  </defs>
  <sodipodi:namedview
     id="base"
     pagecolor="#ffffff"
     bordercolor="#666666"
     borderopacity="1.0"
     inkscape:pageopacity="0.0"
     inkscape:pageshadow="2"
     inkscape:zoom="1.736273"
     inkscape:cx="78.407313"
     inkscape:cy="131.63402"
     inkscape:document-units="px"
     inkscape:current-layer="layer3"
     showgrid="false"
     inkscape:window-width="1855"
     inkscape:window-height="1056"
     inkscape:window-x="65"
     inkscape:window-y="24"
     inkscape:window-maximized="1" />
  <metadata
     id="metadata7">
    <rdf:RDF>
      <cc:Work
         rdf:about="">
        <dc:format>image/svg+xml</dc:format>
        <dc:type
           rdf:resource="http://purl.org/dc/dcmitype/StillImage" />
        <dc:title />
      </cc:Work>
    </rdf:RDF>
  </metadata>
  <g
     inkscape:groupmode="layer"
     id="layer2"
     inkscape:label="Layer"
     style="display:inline"
     sodipodi:insensitive="true">
    <path
       style="fill:url(#linearGradient3783);fill-opacity:1;stroke:#000000;stroke-width:1px;stroke-linecap:butt;stroke-linejoin:miter;stroke-opacity:1"
       d="M 19.006228,224.55104 229.80257,253.34835 158.96118,5.1154974 z"
       id="path3007"
       inkscape:connector-curvature="0" />
  </g>
  <g
     inkscape:label="Layer 1"
     inkscape:groupmode="layer"
     id="layer1"
     transform="translate(0,-752.36218)"
     style="display:inline"
     sodipodi:insensitive="true">
    <path
       sodipodi:type="arc"
       style="fill:url(#linearGradient3791);fill-opacity:1;stroke:#000000;stroke-opacity:1"
       id="path3004"
       sodipodi:cx="135.34738"
       sodipodi:cy="180.49115"
       sodipodi:rx="69.113556"
       sodipodi:ry="33.116913"
       d="m 204.46094,180.49115 c 0,18.28997 -30.9432,33.11691 -69.11356,33.11691 -38.170361,0 -69.113554,-14.82694 -69.113554,-33.11691 0,-18.28997 30.943193,-33.11691 69.113554,-33.11691 38.17036,0 69.11356,14.82694 69.11356,33.11691 z"
       transform="matrix(1.5221706,0.23135507,-0.45970889,0.76605414,1.6439487,822.02055)" />
  </g>
  <g
     inkscape:groupmode="layer"
     id="layer3"
     inkscape:label="text">
    <g
       transform="matrix(0.32809422,-0.94464501,0.94464501,0.32809422,-11.969495,190.04635)"
       style="font-size:40px;font-style:normal;font-weight:normal;line-height:125%;letter-spacing:0px;word-spacing:0px;fill:#000000;fill-opacity:1;stroke:none;font-family:Sans"
       id="flowRoot3796">
      <path
         d="m 17.453125,84.36606 3.984375,0 6.132812,24.64844 6.113282,-24.64844 4.433593,0 6.132813,24.64844 6.113281,-24.64844 4.003906,0 -7.324218,29.16016 -4.960938,0 -6.152344,-25.312504 -6.210937,25.312504 -4.960938,0 -7.304687,-29.16016"
         style=""
         id="path3020" />
      <path
         d="m 65.558594,94.170748 c -1.927094,1.9e-5 -3.45053,0.755227 -4.570313,2.265625 -1.119798,1.497411 -1.679693,3.554701 -1.679687,6.171877 -6e-6,2.61719 0.553379,4.68099 1.660156,6.1914 1.119783,1.4974 2.649729,2.2461 4.589844,2.2461 1.914048,0 3.430974,-0.75521 4.550781,-2.26563 1.119774,-1.51041 1.679669,-3.5677 1.679687,-6.17187 -1.8e-5,-2.59113 -0.559913,-4.641914 -1.679687,-6.152346 -1.119807,-1.523419 -2.636733,-2.285137 -4.550781,-2.285156 m 0,-3.046875 c 3.124984,2.2e-5 5.579409,1.015646 7.363281,3.046875 1.783833,2.031267 2.675759,4.843764 2.675781,8.437502 -2.2e-5,3.58073 -0.891948,6.39323 -2.675781,8.4375 -1.783872,2.03125 -4.238297,3.04687 -7.363281,3.04687 -3.13803,0 -5.598965,-1.01562 -7.382813,-3.04687 -1.770836,-2.04427 -2.656252,-4.85677 -2.65625,-8.4375 -2e-6,-3.593738 0.885414,-6.406235 2.65625,-8.437502 1.783848,-2.031229 4.244783,-3.046853 7.382813,-3.046875"
         style=""
         id="path3022" />
      <path
         d="m 90.011719,94.170748 c -1.927094,1.9e-5 -3.45053,0.755227 -4.570313,2.265625 -1.119798,1.497411 -1.679693,3.554701 -1.679687,6.171877 -6e-6,2.61719 0.553379,4.68099 1.660156,6.1914 1.119783,1.4974 2.649729,2.2461 4.589844,2.2461 1.914048,0 3.430974,-0.75521 4.550781,-2.26563 1.119774,-1.51041 1.679669,-3.5677 1.679687,-6.17187 -1.8e-5,-2.59113 -0.559913,-4.641914 -1.679687,-6.152346 -1.119807,-1.523419 -2.636733,-2.285137 -4.550781,-2.285156 m 0,-3.046875 c 3.124984,2.2e-5 5.579409,1.015646 7.363281,3.046875 1.783833,2.031267 2.67576,4.843764 2.67578,8.437502 -2e-5,3.58073 -0.891947,6.39323 -2.67578,8.4375 -1.783872,2.03125 -4.238297,3.04687 -7.363281,3.04687 -3.13803,0 -5.598965,-1.01562 -7.382813,-3.04687 -1.770836,-2.04427 -2.656252,-4.85677 -2.65625,-8.4375 -2e-6,-3.593738 0.885414,-6.406235 2.65625,-8.437502 1.783848,-2.031229 4.244783,-3.046853 7.382813,-3.046875"
         style=""
         id="path3024" />
      <path
         d="m 106.14453,84.36606 3.94531,0 0,11.953125 14.33594,0 0,-11.953125 3.94531,0 0,29.16016 -3.94531,0 0,-13.886722 -14.33594,0 0,13.886722 -3.94531,0 0,-29.16016"
         style=""
         id="path3026" />
      <path
         d="m 144.54297,94.170748 c -1.92709,1.9e-5 -3.45053,0.755227 -4.57031,2.265625 -1.1198,1.497411 -1.6797,3.554701 -1.67969,6.171877 -1e-5,2.61719 0.55338,4.68099 1.66015,6.1914 1.11979,1.4974 2.64973,2.2461 4.58985,2.2461 1.91405,0 3.43097,-0.75521 4.55078,-2.26563 1.11977,-1.51041 1.67967,-3.5677 1.67969,-6.17187 -2e-5,-2.59113 -0.55992,-4.641914 -1.67969,-6.152346 -1.11981,-1.523419 -2.63673,-2.285137 -4.55078,-2.285156 m 0,-3.046875 c 3.12498,2.2e-5 5.57941,1.015646 7.36328,3.046875 1.78383,2.031267 2.67576,4.843764 2.67578,8.437502 -2e-5,3.58073 -0.89195,6.39323 -2.67578,8.4375 -1.78387,2.03125 -4.2383,3.04687 -7.36328,3.04687 -3.13803,0 -5.59897,-1.01562 -7.38281,-3.04687 -1.77084,-2.04427 -2.65626,-4.85677 -2.65625,-8.4375 -1e-5,-3.593738 0.88541,-6.406235 2.65625,-8.437502 1.78384,-2.031229 4.24478,-3.046853 7.38281,-3.046875"
         style=""
         id="path3028" />
      <path
         d="m 168.99609,94.170748 c -1.92709,1.9e-5 -3.45053,0.755227 -4.57031,2.265625 -1.1198,1.497411 -1.67969,3.554701 -1.67969,6.171877 0,2.61719 0.55338,4.68099 1.66016,6.1914 1.11978,1.4974 2.64973,2.2461 4.58984,2.2461 1.91405,0 3.43098,-0.75521 4.55078,-2.26563 1.11978,-1.51041 1.67967,-3.5677 1.67969,-6.17187 -2e-5,-2.59113 -0.55991,-4.641914 -1.67969,-6.152346 -1.1198,-1.523419 -2.63673,-2.285137 -4.55078,-2.285156 m 0,-3.046875 c 3.12499,2.2e-5 5.57941,1.015646 7.36328,3.046875 1.78384,2.031267 2.67576,4.843764 2.67579,8.437502 -3e-5,3.58073 -0.89195,6.39323 -2.67579,8.4375 -1.78387,2.03125 -4.23829,3.04687 -7.36328,3.04687 -3.13803,0 -5.59896,-1.01562 -7.38281,-3.04687 -1.77084,-2.04427 -2.65625,-4.85677 -2.65625,-8.4375 0,-3.593738 0.88541,-6.406235 2.65625,-8.437502 1.78385,-2.031229 4.24478,-3.046853 7.38281,-3.046875"
         style=""
         id="path3030" />
    </g>
  </g>
</svg>
